<?xml version="1.0" encoding="utf-8"?>
<svg width="1200px" height="620px" viewBox="0 0 1200 620" version="1.1" xmlns="http://www.w3.org/2000/svg" xmlns:xlink="http://www.w3.org/1999/xlink">
  <title>asserts-social-cover</title>
  <defs>
    <linearGradient x1="100%" y1="46.6940831%" x2="0%" y2="53.3059169%" id="linearGradient-1">
      <stop stop-color="#32C5FF" offset="0"/>
      <stop stop-color="#B620E0" offset="0.5126"/>
      <stop stop-color="#F7B500" offset="1"/>
    </linearGradient>
    <radialGradient gradientUnits="userSpaceOnUse" cx="441.202" cy="276.143" r="381.322" id="gradient-1">
      <stop offset="0" style="stop-color: rgba(255, 0, 0, 1)"/>
      <stop offset="1" style="stop-color: rgba(153, 0, 0, 1)"/>
    </radialGradient>
    <radialGradient gradientUnits="userSpaceOnUse" cx="688.837" cy="372.454" r="162.837" id="gradient-0" gradientTransform="matrix(1, 0, 0, 1, -48.782969, 74.09449)">
      <stop offset="0" style="stop-color: rgba(255, 0, 0, 1)"/>
      <stop offset="1" style="stop-color: rgba(153, 0, 0, 1)"/>
    </radialGradient>
  </defs>
  <g id="asserts-social-cover" stroke="none" stroke-width="1" fill="none" fill-rule="evenodd" transform="matrix(1, 0, 0, 1, -154.645081, -40.589359)">
    <rect fill="#FFFFFF" x="0" y="0" width="1200" height="620"/>
    <path d="M304.4,401.8 C324.666667,401.8 340.1,395.766667 350.7,383.7 C361.3,371.633333 366.6,353.933333 366.6,330.6 L366.6,330.6 L366.6,254.4 L324.4,254.4 L324.4,277.6 C322.533333,270.533333 318.566667,264.9 312.5,260.7 C306.433333,256.5 299.333333,254.4 291.2,254.4 C282.4,254.4 274.3,256.666667 266.9,261.2 C259.5,265.733333 253.666667,271.9 249.4,279.7 C245.133333,287.5 243,296.066667 243,305.4 C243,314.6 245.166667,323.066667 249.5,330.8 C253.833333,338.533333 259.7,344.666667 267.1,349.2 C274.5,353.733333 282.6,356 291.4,356 C307.533333,356 319.533333,350.466667 327.4,339.4 C326.6,350.866667 324.066667,359.033333 319.8,363.9 C315.533333,368.766667 309.266667,371.2 301,371.2 C296.6,371.2 291.8,370.8 286.6,370 L286.6,370 L283.4,399.6 C290.066667,401.066667 297.066667,401.8 304.4,401.8 Z M304.4,326 C298.933333,326 294.266667,324.033333 290.4,320.1 C286.533333,316.166667 284.6,311.466667 284.6,306 C284.6,300.533333 286.533333,295.833333 290.4,291.9 C294.266667,287.966667 298.933333,286 304.4,286 C309.6,286 314.166667,287.933333 318.1,291.8 C322.033333,295.666667 324.133333,300.133333 324.4,305.2 L324.4,305.2 L324.4,306.8 C324.133333,312 322.066667,316.5 318.2,320.3 C314.333333,324.1 309.733333,326 304.4,326 Z M440,357.6 C450.4,357.6 459.6,355.733333 467.6,352 C475.6,348.266667 481.833333,343.033333 486.3,336.3 C490.766667,329.566667 493,321.8 493,313 L493,313 L493,255.8 L452.6,255.8 L452.6,312.4 C452.6,316.8 451.433333,320.233333 449.1,322.7 C446.766667,325.166667 443.8,326.4 440.2,326.4 C436.466667,326.4 433.366667,325.166667 430.9,322.7 C428.433333,320.233333 427.2,316.8 427.2,312.4 L427.2,312.4 L427.2,255.8 L386,255.8 L386,313 C386,321.666667 388.266667,329.4 392.8,336.2 C397.333333,343 403.7,348.266667 411.9,352 C420.1,355.733333 429.466667,357.6 440,357.6 Z M556.6,357.6 C571.8,357.6 582.733333,350.866667 589.4,337.4 L589.4,337.4 L589.4,356 L631.4,356 L631.4,254.4 L589.4,254.4 L589.4,277.6 C586.333333,269.866667 581.833333,264.066667 575.9,260.2 C569.966667,256.333333 563.533333,254.4 556.6,254.4 C548.066667,254.4 540,256.6 532.4,261 C524.8,265.4 518.733333,271.5 514.2,279.3 C509.666667,287.1 507.4,295.8 507.4,305.4 C507.4,315.133333 509.666667,323.966667 514.2,331.9 C518.733333,339.833333 524.766667,346.1 532.3,350.7 C539.833333,355.3 547.933333,357.6 556.6,357.6 Z M569.6,326 C564.133333,326 559.4,324.066667 555.4,320.2 C551.4,316.333333 549.4,311.6 549.4,306 C549.4,300.533333 551.366667,295.833333 555.3,291.9 C559.233333,287.966667 564,286 569.6,286 C574.666667,286 579.166667,287.866667 583.1,291.6 C587.033333,295.333333 589.133333,299.866667 589.4,305.2 L589.4,305.2 L589.4,306.8 C589.133333,312 587.1,316.5 583.3,320.3 C579.5,324.1 574.933333,326 569.6,326 Z M693.8,356 L693.8,304 C693.8,298.133333 696.766667,293.833333 702.7,291.1 C708.633333,288.366667 717.933333,287 730.6,287 L730.6,287 L724.8,254.4 C717.733333,254.4 711.566667,256.3 706.3,260.1 C701.033333,263.9 696.866667,269.733333 693.8,277.6 L693.8,277.6 L693.8,257.2 L651.6,257.2 L651.6,356 L693.8,356 Z M784.6,357.6 C800.333333,357.6 811.333333,350.866667 817.6,337.4 L817.6,337.4 L817.6,356 L859.8,356 L859.8,218 L817.6,224.2 L817.6,274.6 C814.266667,267.533333 809.9,262.4 804.5,259.2 C799.1,256 792.533333,254.4 784.8,254.4 C776.266667,254.4 768.233333,256.666667 760.7,261.2 C753.166667,265.733333 747.166667,271.966667 742.7,279.9 C738.233333,287.833333 736,296.533333 736,306 C736,314.933333 738.133333,323.366667 742.4,331.3 C746.666667,339.233333 752.5,345.6 759.9,350.4 C767.3,355.2 775.533333,357.6 784.6,357.6 Z M797.8,326 C792.466667,326 787.833333,324.066667 783.9,320.2 C779.966667,316.333333 778,311.6 778,306 C778,300.533333 779.9,295.833333 783.7,291.9 C787.5,287.966667 792.2,286 797.8,286 C803,286 807.6,287.9 811.6,291.7 C815.6,295.5 817.6,300 817.6,305.2 L817.6,305.2 L817.6,306 C817.6,311.333333 815.7,316 811.9,320 C808.1,324 803.4,326 797.8,326 Z M914.8,357.6 C928.666667,357.6 939.3,354.566667 946.7,348.5 C954.1,342.433333 957.8,334.133333 957.8,323.6 C957.8,314.4 954.8,307.133333 948.8,301.8 C942.8,296.466667 933.733333,292.733333 921.6,290.6 C914.933333,289.4 911.6,287.333333 911.6,284.4 C911.6,282.8 912.466667,281.533333 914.2,280.6 C915.933333,279.666667 919.066667,279.2 923.6,279.2 C926.666667,279.2 930.5,279.6 935.1,280.4 C939.7,281.2 943.933333,282.333333 947.8,283.8 L947.8,283.8 L952,260 C947.866667,258 943.3,256.566667 938.3,255.7 C933.3,254.833333 927.333333,254.4 920.4,254.4 C906.8,254.4 896.066667,257.2 888.2,262.8 C880.333333,268.4 876.133333,276.466667 875.6,287 C875.6,296.333333 878.033333,303.533333 882.9,308.6 C887.766667,313.666667 895.733333,317.266667 906.8,319.4 C912.133333,320.333333 915.766667,321.4 917.7,322.6 C919.633333,323.8 920.6,325.333333 920.6,327.2 C920.6,330.933333 917.266667,332.8 910.6,332.8 C901.533333,332.8 892.2,331.066667 882.6,327.6 L882.6,327.6 L878,351.4 C888.533333,355.533333 900.8,357.6 914.8,357.6 Z" id="asserts" fill="url(#linearGradient-1)" fill-rule="nonzero"/>
  </g>
  <path style="fill: none; stroke: url(#gradient-1); stroke-width: 30px;" d="M 59.88 380.926 C 95.354 376.698 130.914 362.376 164.749 353.382 C 213.564 340.406 262.609 328.313 311.535 315.766 C 403.895 292.079 496.786 270.351 588.533 244.392 C 667.076 222.168 744.563 195.455 822.523 171.361"/>
  <path d="M 544.0439897460938 481.17801391601563 Q 539.8189897460937 481.8540139160156 534.7489897460938 482.69901391601564 Q 529.6789897460937 483.5440139160156 525.6229897460937 484.2200139160156 Q 526.2989897460938 478.6430139160156 526.9749897460938 473.23501391601565 Q 527.4819897460937 468.5030139160156 527.9044897460938 463.77101391601565 Q 528.3269897460938 459.0390139160156 528.6649897460937 455.6590139160156 L 513.9619897460938 455.6590139160156 L 507.2019897460938 479.99501391601564 Q 503.48398974609376 480.50201391601564 498.41398974609376 481.09351391601564 Q 493.34398974609377 481.68501391601563 488.94998974609376 482.19201391601564 Q 483.54198974609375 482.8680139160156 478.3029897460938 483.5440139160156 Q 485.06298974609376 461.06701391601564 491.65398974609377 439.2660139160156 Q 494.3579897460937 430.1400139160156 497.31548974609376 420.1690139160156 Q 500.27298974609374 410.1980139160156 503.2304897460938 400.3115139160156 Q 506.18798974609376 390.4250139160156 508.89198974609377 381.2990139160156 Q 511.5959897460938 372.17301391601563 513.6239897460938 364.5680139160156 Q 525.1159897460938 363.7230139160156 537.0304897460937 362.5400139160156 Q 548.9449897460937 361.3570139160156 560.2679897460938 359.3290139160156 Q 559.7609897460937 364.7370139160156 559.1694897460937 372.76451391601563 Q 558.5779897460937 380.7920139160156 558.0709897460938 390.2560139160156 Q 557.5639897460937 399.7200139160156 557.0569897460938 410.02901391601563 Q 556.5499897460937 420.3380139160156 556.0429897460938 430.3090139160156 Q 555.1979897460938 453.6310139160156 554.1839897460937 479.8260139160156 Q 549.1139897460937 480.6710139160156 544.0439897460938 481.17801391601563 Z M 518.0179897460938 438.75901391601565 Q 518.6939897460937 438.75901391601565 520.4684897460937 438.6745139160156 Q 522.2429897460937 438.5900139160156 524.1864897460938 438.5055139160156 Q 526.1299897460938 438.4210139160156 527.8199897460937 438.33651391601563 Q 529.5099897460938 438.25201391601564 530.1859897460938 438.0830139160156 Q 530.1859897460938 437.0690139160156 530.4394897460937 434.6185139160156 Q 530.6929897460938 432.16801391601564 530.9464897460938 429.0415139160156 Q 531.1999897460937 425.9150139160156 531.5379897460938 422.19701391601564 Q 531.8759897460938 418.4790139160156 532.2139897460937 414.93001391601564 Q 532.8899897460938 406.3110139160156 533.9039897460938 396.3400139160156 L 534.9179897460938 381.63701391601563 L 532.3829897460937 381.8060139160156 L 528.4959897460938 396.3400139160156 Z M 629.8908647460937 442.81501391601563 Q 629.8908647460937 452.27901391601563 626.2573647460938 459.96851391601564 Q 622.6238647460938 467.65801391601565 616.4553647460938 473.23501391601565 Q 610.2868647460938 478.81201391601564 601.9213647460938 481.8540139160156 Q 593.5558647460938 484.89601391601565 583.9228647460938 484.89601391601565 Q 577.1628647460938 484.89601391601565 570.4028647460938 481.2625139160156 Q 563.6428647460938 477.62901391601565 557.3898647460937 469.6860139160156 L 569.8958647460937 445.1810139160156 Q 571.0788647460937 447.3780139160156 573.4448647460938 449.6595139160156 Q 575.8108647460938 451.9410139160156 578.7683647460938 453.6310139160156 Q 581.7258647460937 455.3210139160156 584.6833647460937 456.4195139160156 Q 587.6408647460937 457.5180139160156 590.0068647460937 457.5180139160156 Q 592.0348647460937 457.5180139160156 594.2318647460937 456.8420139160156 Q 596.4288647460937 456.16601391601563 598.2878647460938 454.8140139160156 Q 600.1468647460938 453.4620139160156 601.2453647460937 451.68751391601563 Q 602.3438647460938 449.91301391601564 602.3438647460938 447.5470139160156 Q 602.3438647460938 443.4910139160156 599.7243647460938 440.02651391601563 Q 597.1048647460938 436.56201391601564 593.2178647460937 433.4355139160156 Q 589.3308647460938 430.3090139160156 584.7678647460938 427.09801391601565 Q 580.2048647460938 423.88701391601563 576.4023647460938 420.3380139160156 Q 572.5998647460938 416.7890139160156 569.8958647460937 412.3950139160156 Q 567.1918647460938 408.0010139160156 567.1918647460938 402.5930139160156 Q 567.1918647460938 393.80501391601564 572.4308647460938 386.2000139160156 Q 577.6698647460937 378.5950139160156 585.5283647460938 373.1025139160156 Q 593.3868647460938 367.61001391601565 602.6818647460938 364.39901391601563 Q 611.9768647460937 361.1880139160156 620.2578647460938 361.1880139160156 Q 624.8208647460938 361.1880139160156 628.8768647460938 362.2865139160156 Q 632.9328647460937 363.3850139160156 635.8903647460937 365.8355139160156 Q 638.8478647460938 368.28601391601563 640.6223647460938 372.00401391601565 Q 642.3968647460938 375.7220139160156 642.3968647460938 381.2990139160156 Q 642.3968647460938 383.6650139160156 641.9743647460938 386.03101391601564 Q 641.5518647460938 388.3970139160156 641.2138647460938 391.10101391601563 L 616.7088647460937 398.1990139160156 Q 617.0468647460938 396.8470139160156 617.3003647460938 395.49501391601564 Q 617.5538647460937 394.1430139160156 617.5538647460937 392.79101391601563 Q 617.5538647460937 387.72101391601564 615.7793647460937 385.4395139160156 Q 614.0048647460937 383.15801391601565 611.1318647460937 383.15801391601565 Q 609.7798647460937 383.15801391601565 607.8363647460938 384.1720139160156 Q 605.8928647460938 385.1860139160156 603.9493647460938 386.7915139160156 Q 602.0058647460937 388.3970139160156 600.6538647460937 390.5940139160156 Q 599.3018647460938 392.79101391601563 599.3018647460938 395.32601391601565 Q 599.3018647460938 399.38201391601564 601.5833647460937 402.08601391601565 Q 603.8648647460938 404.7900139160156 607.2448647460938 407.15601391601564 Q 610.6248647460937 409.5220139160156 614.5963647460937 411.9725139160156 Q 618.5678647460937 414.42301391601563 621.9478647460937 418.31001391601563 Q 625.3278647460937 422.19701391601564 627.6093647460938 428.0275139160156 Q 629.8908647460937 433.85801391601564 629.8908647460937 442.81501391601563 Z M 702.5627397460937 442.81501391601563 Q 702.5627397460937 452.27901391601563 698.9292397460938 459.96851391601564 Q 695.2957397460938 467.65801391601565 689.1272397460938 473.23501391601565 Q 682.9587397460938 478.81201391601564 674.5932397460938 481.8540139160156 Q 666.2277397460938 484.89601391601565 656.5947397460938 484.89601391601565 Q 649.8347397460938 484.89601391601565 643.0747397460938 481.2625139160156 Q 636.3147397460938 477.62901391601565 630.0617397460937 469.6860139160156 L 642.5677397460937 445.1810139160156 Q 643.7507397460937 447.3780139160156 646.1167397460938 449.6595139160156 Q 648.4827397460938 451.9410139160156 651.4402397460938 453.6310139160156 Q 654.3977397460937 455.3210139160156 657.3552397460937 456.4195139160156 Q 660.3127397460937 457.5180139160156 662.6787397460937 457.5180139160156 Q 664.7067397460937 457.5180139160156 666.9037397460937 456.8420139160156 Q 669.1007397460937 456.16601391601563 670.9597397460938 454.8140139160156 Q 672.8187397460938 453.4620139160156 673.9172397460937 451.68751391601563 Q 675.0157397460938 449.91301391601564 675.0157397460938 447.5470139160156 Q 675.0157397460938 443.4910139160156 672.3962397460938 440.02651391601563 Q 669.7767397460938 436.56201391601564 665.8897397460937 433.4355139160156 Q 662.0027397460938 430.3090139160156 657.4397397460938 427.09801391601565 Q 652.8767397460938 423.88701391601563 649.0742397460938 420.3380139160156 Q 645.2717397460938 416.7890139160156 642.5677397460937 412.3950139160156 Q 639.8637397460938 408.0010139160156 639.8637397460938 402.5930139160156 Q 639.8637397460938 393.80501391601564 645.1027397460938 386.2000139160156 Q 650.3417397460937 378.5950139160156 658.2002397460938 373.1025139160156 Q 666.0587397460938 367.61001391601565 675.3537397460938 364.39901391601563 Q 684.6487397460937 361.1880139160156 692.9297397460938 361.1880139160156 Q 697.4927397460938 361.1880139160156 701.5487397460938 362.2865139160156 Q 705.6047397460937 363.3850139160156 708.5622397460937 365.8355139160156 Q 711.5197397460938 368.28601391601563 713.2942397460938 372.00401391601565 Q 715.0687397460938 375.7220139160156 715.0687397460938 381.2990139160156 Q 715.0687397460938 383.6650139160156 714.6462397460938 386.03101391601564 Q 714.2237397460938 388.3970139160156 713.8857397460938 391.10101391601563 L 689.3807397460937 398.1990139160156 Q 689.7187397460938 396.8470139160156 689.9722397460938 395.49501391601564 Q 690.2257397460937 394.1430139160156 690.2257397460937 392.79101391601563 Q 690.2257397460937 387.72101391601564 688.4512397460937 385.4395139160156 Q 686.6767397460937 383.15801391601565 683.8037397460937 383.15801391601565 Q 682.4517397460937 383.15801391601565 680.5082397460938 384.1720139160156 Q 678.5647397460938 385.1860139160156 676.6212397460938 386.7915139160156 Q 674.6777397460937 388.3970139160156 673.3257397460937 390.5940139160156 Q 671.9737397460938 392.79101391601563 671.9737397460938 395.32601391601565 Q 671.9737397460938 399.38201391601564 674.2552397460937 402.08601391601565 Q 676.5367397460938 404.7900139160156 679.9167397460938 407.15601391601564 Q 683.2967397460937 409.5220139160156 687.2682397460937 411.9725139160156 Q 691.2397397460937 414.42301391601563 694.6197397460937 418.31001391601563 Q 697.9997397460937 422.19701391601564 700.2812397460938 428.0275139160156 Q 702.5627397460937 433.85801391601564 702.5627397460937 442.81501391601563 Z M 701.7196147460937 484.7270139160156 L 723.8586147460937 364.5680139160156 L 777.2626147460937 360.0050139160156 Q 776.0796147460937 363.7230139160156 775.2346147460937 367.61001391601565 Q 774.3896147460938 370.8210139160156 773.6291147460937 374.2855139160156 Q 772.8686147460937 377.75001391601563 772.3616147460938 380.4540139160156 Q 770.6716147460937 380.6230139160156 767.5451147460938 380.7075139160156 Q 764.4186147460938 380.7920139160156 760.8696147460937 380.8765139160156 Q 757.3206147460937 380.96101391601565 753.6871147460938 380.96101391601565 Q 750.0536147460938 380.96101391601565 747.3496147460937 380.96101391601565 L 741.4346147460938 411.2120139160156 Q 746.6736147460938 410.8740139160156 751.2366147460938 410.7050139160156 Q 754.9546147460937 410.53601391601563 758.8416147460938 410.53601391601563 Q 762.7286147460937 410.53601391601563 764.5876147460938 410.3670139160156 Q 763.9116147460937 415.0990139160156 763.3201147460937 419.6620139160156 Q 762.7286147460937 424.2250139160156 761.8836147460937 428.9570139160156 Q 760.1936147460938 429.1260139160156 756.3911147460938 429.2105139160156 Q 752.5886147460938 429.2950139160156 748.7016147460938 429.46401391601563 Q 744.3076147460938 429.6330139160156 739.0686147460938 429.80201391601565 L 733.3226147460938 460.8980139160156 L 757.9966147460938 457.0110139160156 L 756.3066147460937 476.2770139160156 Z M 758.6686147460938 484.7270139160156 Q 763.2316147460938 462.25001391601563 767.4566147460938 440.7870139160156 Q 768.9776147460938 431.66101391601563 770.8366147460938 421.7745139160156 Q 772.6956147460937 411.8880139160156 774.3011147460937 402.17051391601564 Q 775.9066147460937 392.4530139160156 777.3431147460938 383.4115139160156 Q 778.7796147460938 374.37001391601564 779.6246147460937 366.9340139160156 Q 789.2576147460937 363.8920139160156 800.4116147460937 362.4555139160156 Q 811.5656147460937 361.01901391601564 822.5506147460937 361.01901391601564 Q 829.1416147460938 361.01901391601564 833.4511147460937 362.5400139160156 Q 837.7606147460938 364.0610139160156 840.2111147460937 366.8495139160156 Q 842.6616147460937 369.6380139160156 843.6756147460937 373.3560139160156 Q 844.6896147460938 377.0740139160156 844.6896147460938 381.63701391601563 Q 844.6896147460938 388.3970139160156 842.3236147460938 394.90351391601564 Q 839.9576147460938 401.4100139160156 835.9861147460938 407.24051391601563 Q 832.0146147460938 413.0710139160156 826.8601147460938 417.8875139160156 Q 821.7056147460937 422.70401391601564 815.7906147460938 425.7460139160156 Q 818.8326147460938 432.5060139160156 822.2971147460937 440.53351391601564 Q 825.7616147460938 448.5610139160156 828.8036147460938 455.8280139160156 Q 832.1836147460938 464.27801391601565 835.7326147460938 472.72801391601564 L 809.5376147460937 481.8540139160156 Q 806.1576147460937 471.03801391601564 803.4536147460938 461.57401391601564 Q 802.2706147460938 457.68701391601564 801.0876147460938 453.5465139160156 Q 799.9046147460938 449.40601391601564 798.8906147460938 445.6880139160156 Q 797.8766147460938 441.9700139160156 797.2006147460937 439.0125139160156 Q 796.5246147460938 436.05501391601564 796.3556147460938 434.1960139160156 L 794.1586147460938 434.87201391601565 Q 793.1446147460938 440.2800139160156 791.7081147460938 447.5470139160156 Q 790.2716147460937 454.8140139160156 789.0886147460938 461.57401391601564 Q 787.5676147460938 469.5170139160156 786.0466147460937 477.62901391601565 Z M 798.3836147460937 411.3810139160156 Q 801.5946147460937 411.04301391601564 806.2421147460938 408.67701391601565 Q 810.8896147460938 406.3110139160156 815.1146147460937 403.0155139160156 Q 819.3396147460937 399.7200139160156 822.3816147460938 396.1710139160156 Q 825.4236147460938 392.6220139160156 825.4236147460938 389.91801391601564 Q 825.4236147460938 388.0590139160156 824.2406147460938 386.9605139160156 Q 823.0576147460938 385.8620139160156 820.9451147460937 385.2705139160156 Q 818.8326147460938 384.6790139160156 816.2976147460938 384.5100139160156 Q 813.7626147460937 384.34101391601564 811.0586147460938 384.34101391601564 Q 809.1996147460937 384.34101391601564 807.2561147460938 384.42551391601563 Q 805.3126147460938 384.5100139160156 803.7916147460937 384.5100139160156 Z M 848.2416772460938 484.7270139160156 Q 852.1286772460937 466.13701391601563 855.6776772460937 448.0540139160156 Q 857.1986772460938 440.44901391601564 858.7196772460937 432.16801391601564 Q 860.2406772460938 423.88701391601563 861.6771772460937 415.8595139160156 Q 863.1136772460937 407.8320139160156 864.2121772460938 400.3115139160156 Q 865.3106772460937 392.79101391601563 866.1556772460938 386.53801391601564 Q 862.2686772460937 386.03101391601564 858.2971772460937 386.2000139160156 Q 854.3256772460937 386.3690139160156 850.4386772460938 385.1860139160156 Q 850.6076772460938 382.4820139160156 850.6076772460938 378.9330139160156 Q 850.6076772460938 375.38401391601565 850.7766772460938 371.8350139160156 Q 850.9456772460937 367.9480139160156 851.1146772460937 363.5540139160156 Q 855.5086772460937 363.8920139160156 859.9026772460937 364.0610139160156 Q 864.2966772460937 364.23001391601565 868.6906772460937 364.23001391601565 Q 877.3096772460938 364.23001391601565 885.3371772460938 363.80751391601564 Q 893.3646772460937 363.3850139160156 900.2091772460938 362.7935139160156 Q 907.0536772460938 362.20201391601563 913.6446772460938 361.3570139160156 L 911.7856772460938 370.48301391601564 Q 910.9406772460937 374.37001391601564 910.1801772460938 378.4260139160156 Q 909.4196772460938 382.4820139160156 908.7436772460937 385.35501391601565 Q 905.0256772460938 386.3690139160156 901.2231772460938 386.7915139160156 Q 897.4206772460938 387.21401391601563 893.7026772460938 387.8900139160156 Q 892.5196772460938 393.6360139160156 891.1676772460937 400.6495139160156 Q 889.8156772460937 407.66301391601564 888.5481772460937 415.1835139160156 Q 887.2806772460938 422.70401391601564 886.0976772460938 430.47801391601564 Q 884.9146772460938 438.25201391601564 883.7316772460938 445.3500139160156 Q 881.0276772460937 462.08101391601565 878.6616772460937 479.99501391601564 Z M 969.0783647460937 442.81501391601563 Q 969.0783647460937 452.27901391601563 965.4448647460938 459.96851391601564 Q 961.8113647460938 467.65801391601565 955.6428647460938 473.23501391601565 Q 949.4743647460938 478.81201391601564 941.1088647460938 481.8540139160156 Q 932.7433647460938 484.89601391601565 923.1103647460938 484.89601391601565 Q 916.3503647460938 484.89601391601565 909.5903647460938 481.2625139160156 Q 902.8303647460938 477.62901391601565 896.5773647460937 469.6860139160156 L 909.0833647460937 445.1810139160156 Q 910.2663647460937 447.3780139160156 912.6323647460938 449.6595139160156 Q 914.9983647460938 451.9410139160156 917.9558647460938 453.6310139160156 Q 920.9133647460937 455.3210139160156 923.8708647460937 456.4195139160156 Q 926.8283647460937 457.5180139160156 929.1943647460937 457.5180139160156 Q 931.2223647460937 457.5180139160156 933.4193647460937 456.8420139160156 Q 935.6163647460937 456.16601391601563 937.4753647460938 454.8140139160156 Q 939.3343647460938 453.4620139160156 940.4328647460937 451.68751391601563 Q 941.5313647460938 449.91301391601564 941.5313647460938 447.5470139160156 Q 941.5313647460938 443.4910139160156 938.9118647460938 440.02651391601563 Q 936.2923647460938 436.56201391601564 932.4053647460937 433.4355139160156 Q 928.5183647460938 430.3090139160156 923.9553647460938 427.09801391601565 Q 919.3923647460938 423.88701391601563 915.5898647460938 420.3380139160156 Q 911.7873647460938 416.7890139160156 909.0833647460937 412.3950139160156 Q 906.3793647460938 408.0010139160156 906.3793647460938 402.5930139160156 Q 906.3793647460938 393.80501391601564 911.6183647460938 386.2000139160156 Q 916.8573647460937 378.5950139160156 924.7158647460938 373.1025139160156 Q 932.5743647460938 367.61001391601565 941.8693647460938 364.39901391601563 Q 951.1643647460937 361.1880139160156 959.4453647460938 361.1880139160156 Q 964.0083647460938 361.1880139160156 968.0643647460938 362.2865139160156 Q 972.1203647460937 363.3850139160156 975.0778647460937 365.8355139160156 Q 978.0353647460938 368.28601391601563 979.8098647460938 372.00401391601565 Q 981.5843647460938 375.7220139160156 981.5843647460938 381.2990139160156 Q 981.5843647460938 383.6650139160156 981.1618647460938 386.03101391601564 Q 980.7393647460938 388.3970139160156 980.4013647460938 391.10101391601563 L 955.8963647460937 398.1990139160156 Q 956.2343647460938 396.8470139160156 956.4878647460938 395.49501391601564 Q 956.7413647460937 394.1430139160156 956.7413647460937 392.79101391601563 Q 956.7413647460937 387.72101391601564 954.9668647460937 385.4395139160156 Q 953.1923647460937 383.15801391601565 950.3193647460937 383.15801391601565 Q 948.9673647460937 383.15801391601565 947.0238647460938 384.1720139160156 Q 945.0803647460938 385.1860139160156 943.1368647460938 386.7915139160156 Q 941.1933647460937 388.3970139160156 939.8413647460937 390.5940139160156 Q 938.4893647460938 392.79101391601563 938.4893647460938 395.32601391601565 Q 938.4893647460938 399.38201391601564 940.7708647460937 402.08601391601565 Q 943.0523647460938 404.7900139160156 946.4323647460938 407.15601391601564 Q 949.8123647460937 409.5220139160156 953.7838647460937 411.9725139160156 Q 957.7553647460937 414.42301391601563 961.1353647460937 418.31001391601563 Q 964.5153647460937 422.19701391601564 966.7968647460938 428.0275139160156 Q 969.0783647460937 433.85801391601564 969.0783647460937 442.81501391601563 Z" transform="matrix(1, 0, 0, 1, 0, 0)" style="fill: url(#gradient-0); white-space: pre;"/>
</svg>
